<svg width="14" height="21" viewBox="0 0 14 21" fill="none" xmlns="http://www.w3.org/2000/svg">
<path d="M11.2157 0.974121H2.85602C2.30245 0.97636 1.7722 1.19215 1.38077 1.57449C0.989328 1.95683 0.768406 2.47475 0.766113 3.01545V17.9852C0.768406 18.5259 0.989328 19.0438 1.38077 19.4262C1.7722 19.8085 2.30245 20.0243 2.85602 20.0265H11.2157C11.7692 20.0243 12.2995 19.8085 12.6909 19.4262C13.0824 19.0438 13.3033 18.5259 13.3056 17.9852V3.01545C13.3033 2.47475 13.0824 1.95683 12.6909 1.57449C12.2995 1.19215 11.7692 0.97636 11.2157 0.974121ZM2.85602 2.33501H11.2157C11.4004 2.33501 11.5776 2.4067 11.7083 2.53431C11.8389 2.66191 11.9123 2.83499 11.9123 3.01545V3.6959H2.15939V3.01545C2.15939 2.83499 2.23278 2.66191 2.36343 2.53431C2.49407 2.4067 2.67126 2.33501 2.85602 2.33501ZM11.2157 18.6657H2.85602C2.67126 18.6657 2.49407 18.594 2.36343 18.4664C2.23278 18.3387 2.15939 18.1657 2.15939 17.9852V17.3048H11.9123V17.9852C11.9123 18.1657 11.8389 18.3387 11.7083 18.4664C11.5776 18.594 11.4004 18.6657 11.2157 18.6657Z" fill="#53C69F"/>
</svg>
