<svg width="11" height="10" viewBox="0 0 11 10" fill="none" xmlns="http://www.w3.org/2000/svg" preserveAspectRatio="none">
<path d="M6.69586 2.78068C6.01386 3.3869 4.98614 3.3869 4.30415 2.78068L2.57403 1.24279C2.24657 0.951722 1.75312 0.951722 1.42566 1.24279C1.03889 1.58659 1.03889 2.19091 1.42566 2.5347L2.68561 3.65466C3.49114 4.37069 3.49114 5.62931 2.68561 6.34534L1.42566 7.4653C1.03889 7.80909 1.03889 8.41341 1.42566 8.75721C1.75312 9.04828 2.24657 9.04828 2.57402 8.75721L4.30414 7.21932C4.98614 6.6131 6.01386 6.6131 6.69585 7.21932L8.42597 8.75721C8.75343 9.04828 9.24688 9.04828 9.57434 8.75721C9.96111 8.41341 9.96111 7.80909 9.57434 7.4653L8.31439 6.34534C7.50886 5.62931 7.50886 4.37069 8.31439 3.65466L9.57434 2.5347C9.96111 2.19091 9.96111 1.58659 9.57434 1.24279C9.24688 0.951722 8.75343 0.951721 8.42598 1.24279L6.69586 2.78068Z" fill="#F45E64" stroke="#F45E64" stroke-width="0.4"/>
</svg>
