<svg width="197" height="197" viewBox="0 0 197 197" fill="none" xmlns="http://www.w3.org/2000/svg">
<path d="M98.5003 139.542C100.826 139.542 102.777 138.754 104.353 137.178C105.923 135.607 106.709 133.659 106.709 131.334C106.709 129.008 105.923 127.057 104.353 125.481C102.777 123.911 100.826 123.125 98.5003 123.125C96.1746 123.125 94.2265 123.911 92.656 125.481C91.08 127.057 90.292 129.008 90.292 131.334C90.292 133.659 91.08 135.607 92.656 137.178C94.2265 138.754 96.1746 139.542 98.5003 139.542ZM98.5003 106.709C100.826 106.709 102.777 105.921 104.353 104.345C105.923 102.774 106.709 100.826 106.709 98.5003V65.667C106.709 63.3413 105.923 61.3905 104.353 59.8145C102.777 58.2439 100.826 57.4587 98.5003 57.4587C96.1746 57.4587 94.2265 58.2439 92.656 59.8145C91.08 61.3905 90.292 63.3413 90.292 65.667V98.5003C90.292 100.826 91.08 102.774 92.656 104.345C94.2265 105.921 96.1746 106.709 98.5003 106.709ZM98.5003 180.584C87.1455 180.584 76.4746 178.428 66.4878 174.116C56.501 169.809 47.8139 163.962 40.4264 156.574C33.0389 149.187 27.1918 140.5 22.8852 130.513C18.573 120.526 16.417 109.855 16.417 98.5003C16.417 87.1455 18.573 76.4746 22.8852 66.4878C27.1918 56.501 33.0389 47.8139 40.4264 40.4264C47.8139 33.0389 56.501 27.1891 66.4878 22.877C76.4746 18.5703 87.1455 16.417 98.5003 16.417C109.855 16.417 120.526 18.5703 130.513 22.877C140.5 27.1891 149.187 33.0389 156.574 40.4264C163.962 47.8139 169.809 56.501 174.116 66.4878C178.428 76.4746 180.584 87.1455 180.584 98.5003C180.584 109.855 178.428 120.526 174.116 130.513C169.809 140.5 163.962 149.187 156.574 156.574C149.187 163.962 140.5 169.809 130.513 174.116C120.526 178.428 109.855 180.584 98.5003 180.584ZM98.5003 164.167C116.832 164.167 132.36 157.806 145.083 145.083C157.806 132.36 164.167 116.832 164.167 98.5003C164.167 80.1684 157.806 64.641 145.083 51.918C132.36 39.1951 116.832 32.8337 98.5003 32.8337C80.1684 32.8337 64.641 39.1951 51.918 51.918C39.1951 64.641 32.8337 80.1684 32.8337 98.5003C32.8337 116.832 39.1951 132.36 51.918 145.083C64.641 157.806 80.1684 164.167 98.5003 164.167Z" fill="#636F82"/>
</svg>
