<svg width="21" height="22" viewBox="0 0 21 22" fill="none" xmlns="http://www.w3.org/2000/svg">
<path d="M1.30859 8V3.5C1.30859 3.10218 1.47039 2.72064 1.75839 2.43934C2.04639 2.15804 2.437 2 2.84429 2H18.2012C18.6085 2 18.9992 2.15804 19.2871 2.43934C19.5751 2.72064 19.7369 3.10218 19.7369 3.5V8M14.618 11V14.5M10.5228 6.5V14.5M6.42758 8.5V14.5M1.30859 14V18.5C1.30859 18.8978 1.47039 19.2794 1.75839 19.5607C2.04639 19.842 2.437 20 2.84429 20H18.2012C18.6085 20 18.9992 19.842 19.2871 19.5607C19.5751 19.2794 19.7369 18.8978 19.7369 18.5V14" stroke="#FB8A00" stroke-width="2.5" stroke-linecap="round" stroke-linejoin="round"/>
</svg>
