<svg width="21" height="22" viewBox="0 0 21 22" fill="none" xmlns="http://www.w3.org/2000/svg">
<path d="M1.30957 8V3.5C1.30957 3.10218 1.47137 2.72064 1.75937 2.43934C2.04736 2.15804 2.43797 2 2.84527 2H18.2022C18.6095 2 19.0001 2.15804 19.2881 2.43934C19.5761 2.72064 19.7379 3.10218 19.7379 3.5V8M14.6189 11V14.5M10.5237 6.5V14.5M6.42856 8.5V14.5M1.30957 14V18.5C1.30957 18.8978 1.47137 19.2794 1.75937 19.5607C2.04736 19.842 2.43797 20 2.84527 20H18.2022C18.6095 20 19.0001 19.842 19.2881 19.5607C19.5761 19.2794 19.7379 18.8978 19.7379 18.5V14" stroke="#5CC8A3" stroke-width="2.5" stroke-linecap="round" stroke-linejoin="round"/>
</svg>
