<svg width="16" height="18" viewBox="0 0 16 18" fill="none" xmlns="http://www.w3.org/2000/svg">
<path d="M7.17489 0.989937C7.42617 0.815743 7.72669 0.722168 8.03482 0.722168C8.34295 0.722168 8.64347 0.815743 8.89475 0.989937L15.4175 5.51026C16.2278 6.07203 15.8221 7.31969 14.829 7.32187H1.24401C0.247539 7.32187 -0.160411 6.07312 0.65326 5.51026L7.17489 0.989937ZM8.03538 5.00836C8.28177 5.00836 8.51808 4.91276 8.6923 4.74258C8.86653 4.5724 8.96441 4.34159 8.96441 4.10092C8.96441 3.86026 8.86653 3.62945 8.6923 3.45927C8.51808 3.28909 8.28177 3.19349 8.03538 3.19349C7.78898 3.19349 7.55268 3.28909 7.37845 3.45927C7.20422 3.62945 7.10634 3.86026 7.10634 4.10092C7.10634 4.34159 7.20422 4.5724 7.37845 4.74258C7.55268 4.91276 7.78898 5.00836 8.03538 5.00836ZM1.90498 8.41167V12.7665H4.13421V8.41167H1.90498ZM0.233049 16.2134C0.233049 14.9102 1.31423 13.8541 2.64731 13.8541H13.4223C14.0628 13.8544 14.677 14.1031 15.1299 14.5455C15.5828 14.9878 15.8374 15.5877 15.8377 16.2134V16.5759C15.8377 16.7203 15.779 16.8587 15.6745 16.9608C15.57 17.0629 15.4282 17.1203 15.2804 17.1203H0.790358C0.642551 17.1203 0.500797 17.0629 0.396281 16.9608C0.291766 16.8587 0.233049 16.7203 0.233049 16.5759V16.2134ZM14.1658 8.41058V12.7654H11.9365V8.41167H14.1658V8.41058ZM10.8219 8.41058V12.7654H8.59269V8.41167H10.8219V8.41058ZM7.47807 8.41058V12.7654H5.24883V8.41167H7.47807V8.41058Z" fill="#53C69F"/>
</svg>
