<svg width="31" height="30" viewBox="0 0 31 30" fill="none" xmlns="http://www.w3.org/2000/svg">
<path d="M15.3192 0C11.2879 0 7.42172 1.58035 4.57115 4.3934C1.72057 7.20644 0.119141 11.0218 0.119141 15C0.119141 18.9782 1.72057 22.7936 4.57115 25.6066C7.42172 28.4196 11.2879 30 15.3192 30C19.3506 30 23.2168 28.4196 26.0673 25.6066C28.9179 22.7936 30.5193 18.9782 30.5193 15C30.5193 11.0218 28.9179 7.20644 26.0673 4.3934C23.2168 1.58035 19.3506 0 15.3192 0V0ZM6.33978 8.86125H20.8508C21.5803 8.87173 22.2764 9.16449 22.7893 9.6765C23.3023 10.1885 23.5909 10.8788 23.5932 11.5988V18.9275C23.5817 19.6458 23.2876 20.3316 22.7729 20.8397C22.2583 21.3478 21.5635 21.6384 20.8356 21.65H10.3032C8.81613 21.65 7.71919 20.4125 7.71919 18.9275V13.1287L5.82298 9.88125C5.43031 9.35625 5.75964 8.86125 6.33978 8.86125ZM10.6655 11.5988C10.2259 11.5988 9.80413 11.8612 9.80413 12.2787C9.80413 12.6962 10.2259 12.9587 10.6655 12.9587H20.6785C21.1168 12.9587 21.5399 12.6962 21.5399 12.2787C21.5399 11.8612 21.1168 11.5975 20.6785 11.5975L10.6655 11.5988ZM10.6655 14.32C10.2259 14.32 9.80413 14.5825 9.80413 15C9.80413 15.4175 10.2259 15.68 10.6655 15.68H20.6785C21.1168 15.68 21.5399 15.4175 21.5399 15C21.5399 14.5825 21.1168 14.32 20.6785 14.32H10.6655ZM10.649 17.0575C10.2107 17.0575 9.78767 17.32 9.78767 17.7375C9.78767 18.155 10.2107 18.4175 10.649 18.4175H17.9045C18.3441 18.4175 18.7659 18.155 18.7659 17.7375C18.7659 17.32 18.3441 17.0563 17.9045 17.0563L10.649 17.0575Z" fill="#4EABE9"/>
</svg>
