<svg width="11" height="11" viewBox="0 0 11 11" fill="none" xmlns="http://www.w3.org/2000/svg">
<path d="M3.76809 2.73868C4.54694 3.50728 5.79887 3.50728 6.57772 2.73868L8.76382 0.58136C9.09043 0.259045 9.61543 0.259045 9.94205 0.58136C10.2748 0.909772 10.2748 1.44689 9.94205 1.77531L7.8095 3.87978C7.01592 4.66292 7.01592 5.94375 7.8095 6.72689L9.94205 8.83136C10.2748 9.15977 10.2748 9.6969 9.94205 10.0253C9.61543 10.3476 9.09043 10.3476 8.76382 10.0253L6.57772 7.86799C5.79887 7.09939 4.54694 7.09939 3.76809 7.86799L1.582 10.0253C1.25538 10.3476 0.73038 10.3476 0.403765 10.0253C0.0709723 9.6969 0.0709722 9.15977 0.403765 8.83136L2.53631 6.72689C3.3299 5.94375 3.3299 4.66292 2.53631 3.87978L0.403766 1.77531C0.0709727 1.4469 0.0709723 0.909772 0.403765 0.58136C0.73038 0.259045 1.25538 0.259045 1.582 0.58136L3.76809 2.73868Z" fill="white"/>
</svg>
