<svg width="16" height="13" viewBox="0 0 16 13" fill="none" xmlns="http://www.w3.org/2000/svg">
<path d="M11.69 8.41076C12.5977 7.37849 13.0043 6.09867 12.8284 4.82732C12.6524 3.55598 11.9069 2.38688 10.741 1.55391C9.57512 0.720947 8.07479 0.285548 6.5402 0.334823C5.00562 0.384099 3.54994 0.914414 2.46441 1.81967C1.37888 2.72493 0.743541 3.93837 0.685508 5.21723C0.627476 6.49609 1.15103 7.74605 2.15142 8.71704C3.15181 9.68803 4.55527 10.3084 6.08101 10.4542C7.60674 10.5999 9.14224 10.2601 10.3803 9.50293H10.3794C10.4075 9.53418 10.4375 9.56387 10.4712 9.59277L14.0806 12.6005C14.2564 12.7471 14.4948 12.8295 14.7435 12.8296C14.9922 12.8297 15.2307 12.7474 15.4067 12.6009C15.5826 12.4544 15.6814 12.2557 15.6815 12.0485C15.6816 11.8412 15.5829 11.6425 15.4071 11.4959L11.7978 8.4881C11.7643 8.45983 11.7282 8.43371 11.69 8.40998V8.41076ZM11.9319 5.40767C11.9319 5.97194 11.7985 6.53068 11.5394 7.05199C11.2802 7.57331 10.9004 8.04698 10.4216 8.44598C9.94284 8.84498 9.37443 9.16148 8.74885 9.37741C8.12328 9.59335 7.45279 9.70449 6.77567 9.70449C6.09855 9.70449 5.42806 9.59335 4.80248 9.37741C4.1769 9.16148 3.60849 8.84498 3.12969 8.44598C2.6509 8.04698 2.2711 7.57331 2.01197 7.05199C1.75285 6.53068 1.61948 5.97194 1.61948 5.40767C1.61948 4.26808 2.16272 3.17517 3.12969 2.36936C4.09667 1.56355 5.40816 1.11085 6.77567 1.11085C8.14317 1.11085 9.45467 1.56355 10.4216 2.36936C11.3886 3.17517 11.9319 4.26808 11.9319 5.40767Z" fill="#C4C4C4"/>
</svg>
